 <!DOCTYPE svg PUBLIC "-//W3C//DTD SVG 1.1//EN" "http://www.w3.org/Graphics/SVG/1.1/DTD/svg11.dtd">
<svg id="beb98bb5-8961-465d-a5b5-43e631210128" data-name="Layer 1" xmlns="http://www.w3.org/2000/svg" width="865.76" height="682.89" viewBox="0 0 865.76 682.89">
<defs>
<style xmlns="http://www.w3.org/1999/xhtml">*, ::after, ::before { box-sizing: border-box; }
img, svg { vertical-align: middle; }
</style>
<style xmlns="http://www.w3.org/1999/xhtml">*, body, html { -webkit-font-smoothing: antialiased; }
img, svg { max-width: 100%; }
</style>
</defs>
<path d="M172.8,670.67s-50.09,3.48-49.22-59.63c0,0,2-52.68,20.11-100.16,0,0,10.38-23.73-9.08-65.42,0,0-72-122.16-45.74-176,0,0,125.53-240.26,308.48-250.1,0,0,208.25-27.79,325,20.84,0,0,81.74,20.84,27.25,137.21,0,0-79.12,116.37-29.2,186.71,0,0,118.72,153.78-38.92,306.59Z" fill="#0071f2" data-primary="true"/>
<path d="M172.8,670.67s-50.09,3.48-49.22-59.63c0,0,2-52.68,20.11-100.16,0,0,10.38-23.73-9.08-65.42,0,0-72-122.16-45.74-176,0,0,125.53-240.26,308.48-250.1,0,0,208.25-27.79,325,20.84,0,0,81.74,20.84,27.25,137.21,0,0-79.12,116.37-29.2,186.71,0,0,118.72,153.78-38.92,306.59Z" fill="#fff" opacity="0.7"/>
<rect x="97.34" y="138.37" width="286.21" height="177.52" fill="#fff"/>
<rect x="173.9" y="367.03" width="196.68" height="289.95" fill="#fff"/>
<path d="M371.31,657.72H173.17V366.3H371.31Zm-196.68-1.47H369.84V367.77H174.63Z" fill="#2f2e41" data-secondary="true"/>
<path d="M516.22,548.2c-.39,22.53-6.42,78.45-6.42,78.45l-21.73.4s-.42-5.32-1.19-13.68c-2.42-26.39-8.29-83.18-15.3-99.37,0,0-4.44-12.87-6.84-38.62l-2.43-34.59-2,55.92s-5.69,69.07-15.59,88.89a3.39,3.39,0,0,1-2.81,1.86c-3.25.24-10,0-15-4.67,0,0,0-3.89,0-10.2,0-25-.14-88.3-.79-99.22,0,0-10.05-77.23-5.24-111l3.23-1.2,85.7,8.18,1.67.16s4.74,5.32,3.94,74.12c0,0,0,50.28,1.2,61.95S516.62,525.67,516.22,548.2Z" fill="#2f2e41" data-secondary="true"/>
<path d="M516.22,548.2c-.39,22.53-6.42,78.45-6.42,78.45l-21.73.4s-.42-5.32-1.19-13.68c11.75-.16,16.08-6.84,16.08-6.84,6-11.67,4.83-75.22,4.83-75.22-6.84-12.07-.42-15.69-.42-15.69,6-6,1.21-14.49,1.21-14.49-8.44-9.25-1.21-26.95-1.21-26.95,10.87-31.78.81-103,.81-103l1.63-1.87,1.67.16s4.74,5.32,3.94,74.12c0,0,0,50.28,1.2,61.95S516.62,525.67,516.22,548.2Z" opacity="0.2"/>
<path d="M576.37,261c-7.2-3.45-29.41,19-29.41,19l-25.38-38.64c-5.49-7.21-26.83-9.24-26.83-9.24l-35.18-.57C455.24,231.62,435,236,435,236c-17,3.47-23.35,46.15-23.35,46.15l-8.08,46.14c-4.91,25.38,11,24.51,11,24.51l4.74,4.54,1.6,1.53c9.23,20.19,47.31,22.78,47.31,22.78,24.8,4.9,43.26-12.11,43.26-12.11-2.89-6.64-.58-14.42-.58-14.42,3.75-12.12,6.92-39.52,6.92-39.52,28.55,23.66,45.86-2.31,45.86-2.31l27.12-42.68C580.13,271.43,576.37,261,576.37,261Zm-147,32.09h-3.64s.81-5.47,3.64-7.9Z" fill="#0071f2" data-primary="true"/>
<path d="M462.31,440.79l-2,55.92s-5.69,69.07-15.59,88.89a3.39,3.39,0,0,1-2.81,1.86c-3.25.24-10,0-15-4.67,0,0,0-3.89,0-10.2,4.35-3.56,15.84-15.91,18.11-47.73a16.94,16.94,0,0,1,2.82-13.66s4.42-3.23,0-9.26c0,0-6.72-1.3,1-12,0,0,10.48-60.38,12.16-84.29C461,405.65,463.59,429.37,462.31,440.79Z" opacity="0.2"/>
<path d="M488.07,627.05s-.69,8.7-3.46,13.18c0,0-23.68,25.17-12.59,25.81,0,0,9.17,5.34,26.46-11.94l8.69-8.87a7.94,7.94,0,0,0,2.27-5.35l.36-13.23Z" fill="#0071f2" data-primary="true"/>
<path d="M426.93,582.79s-9.28,9.54-16.82,9.09c0,0-34.3,4.11-27.44,11.43,0,0,26.64,9.3,55.32-3.81a6.21,6.21,0,0,0,3.61-5.36l.3-6.68S433.23,588.34,426.93,582.79Z" fill="#0071f2" data-primary="true"/>
<path d="M576.37,261s-2.25-16.09,5-22.47l15.91-13.13a1.82,1.82,0,0,1,2.24-.05h0a1.82,1.82,0,0,1,.38,2.5l-8.11,11.32s4.67.42,5.1,4.67c0,0,2.76-.85,4.89,3,0,0,4.68-.64,5.53,4.89l.1,2.14a4.19,4.19,0,0,1-6.91,3.6s.84,10.41-9.68,13.07C590.8,270.56,580.75,272,576.37,261Z" fill="#f9b499"/>
<path d="M580.5,246.86c1.12-1.44,2.28-2.85,3.43-4.27s2.32-2.81,3.48-4.22l1.77-2.12a1,1,0,0,1,1.06-.24,1,1,0,0,1,.66.88,13.29,13.29,0,0,1,.05,1.41,21.24,21.24,0,0,1-.85,5.5v0a11.36,11.36,0,0,0-.11,2.41,6.1,6.1,0,0,0,.55,2.24,2.37,2.37,0,0,0,1.59,1.29,4.88,4.88,0,0,0,2.27-.09l.64-.12-.07.61a7.62,7.62,0,0,0,.06,2.08,3.33,3.33,0,0,0,.76,1.77,2,2,0,0,0,1.69.59,7,7,0,0,0,1-.17l1-.37.69-.25-.23.67a2.78,2.78,0,0,0,.25,2.26,3.41,3.41,0,0,0,1.9,1.45,3.67,3.67,0,0,0,2.47,0,5.88,5.88,0,0,0,2.15-1.43,5.6,5.6,0,0,1-2.06,1.64,4,4,0,0,1-2.68.18,5.84,5.84,0,0,1-1.26-.54,3.21,3.21,0,0,1-1-1,3.4,3.4,0,0,1-.4-2.79l.45.43-1.06.44a7.48,7.48,0,0,1-1.16.25,2.74,2.74,0,0,1-2.36-.76,4.08,4.08,0,0,1-1-2.21,8.72,8.72,0,0,1-.09-2.34l.57.5a5.73,5.73,0,0,1-2.74.13,3.37,3.37,0,0,1-2.23-1.75,6.32,6.32,0,0,1-.66-2.64,12.33,12.33,0,0,1,.16-2.64v-.05a20.06,20.06,0,0,0,.89-5.26,11.59,11.59,0,0,0,0-1.32.19.19,0,0,0-.31-.14l-1.82,2c-1.23,1.35-2.44,2.72-3.69,4.05S581.77,245.55,580.5,246.86Z" fill="#f7a48b"/>
<path d="M596.87,243.88a8.16,8.16,0,0,1-.52,3,8,8,0,0,1-1.46,2.64,8.16,8.16,0,0,1,.52-3A8.39,8.39,0,0,1,596.87,243.88Z" fill="#f7a48b"/>
<path d="M601.76,246.86a13.76,13.76,0,0,1-.58,3.86,13.45,13.45,0,0,1-1.55,3.58,15.37,15.37,0,0,1,2.13-7.44Z" fill="#f7a48b"/>
<path d="M469.3,248.5c-2.69.37-4-6.71-4-6.71-2.69.24-8.06,4.27-8.06,4.27s.49,40.05,5.37,38.95c0,0,2.69,1.22,8.06-12.09l13.07-24.17s-6.93-3-10.43-3.68a9.7,9.7,0,0,1-2.51,3,3,3,0,0,1-.92.35A2.87,2.87,0,0,1,469.3,248.5Z" fill="#fff" opacity="0.2"/>
<path d="M488.29,226.72l-14.48,17.61a13.07,13.07,0,0,1-3,3.77,2.2,2.2,0,0,1-2.93-.11c-3.78-3.79-3.87-19.62-3.78-25.09a17.8,17.8,0,0,0,2.92.25c7.27,0,13.74-4.43,18-11.39A38,38,0,0,0,488.29,226.72Z" fill="#f9b499"/>
<path d="M464.06,222.9s-.4,7.7.34,10.83c0,0,8.36-1.94,12.54-13.88C476.94,219.85,472.38,224.32,464.06,222.9Z" fill="#f7a48b"/>
<path d="M473.28,245.07s14.66,4.05,17.63,8.17l3.14-22.12s.7-4-5.76-4.4Z" fill="#0071f2" data-primary="true"/>
<path d="M451.11,252.53s7.57-9.65,14.16-10.74c0,0-1.71-10.51-1.22-13.92C464.05,227.87,454.16,231.53,451.11,252.53Z" fill="#0071f2" data-primary="true"/>
<path d="M473.28,245.07s14.66,4.05,17.63,8.17l3.14-22.12s.7-4-5.76-4.4Z" opacity="0.2"/>
<path d="M451.11,252.53s7.57-9.65,14.16-10.74c0,0-1.71-10.51-1.22-13.92C464.05,227.87,454.16,231.53,451.11,252.53Z" opacity="0.2"/>
<path d="M490.32,192A38,38,0,0,1,485,211.76c-4.29,7-10.76,11.39-18,11.39a17.8,17.8,0,0,1-2.92-.25c-11.51-1.9-20.41-15-20.41-31,0-17.23,10.45-31.21,23.33-31.21S490.32,174.72,490.32,192Z" fill="#f9b499"/>
<path d="M500.27,197.09a17.45,17.45,0,0,1-3.35,3.74l-8.11-5.58s-2.79-12.18-18-13.44a4.68,4.68,0,0,0,4.56,4.31s-5.49,1.75-11.36-4.33a9.5,9.5,0,0,0-5.08-2.9c-2-.39-4.37-.14-5.63,2.4,0,0-3.83,5.67-9.34,4.8,0,0-.38,4.41-.3,5.86l-.06,0c-.68-.45-6.43-4.57-5.63-11.41v0c.39-3.14,2.15-6.88,6.45-11.1,0,0-2.29-12.68,13.69-18,0,0,24.87-7.87,26.39,3.8,0,0,19-.77,20.55,16.48C505,171.65,507,187.27,500.27,197.09Z" fill="#2f2e41" data-secondary="true"/>
<path d="M443.81,185.82l-.09,3.62s5.07.82,13.5-5.43c0,0,12,6.16,20.76,3.8,0,0,5.89.36,9.7,8.52l1.12-1.08s-2.36-11.93-18-13.45c0,0,0,3.8,4.57,4.32,0,0-5.51,1.69-11.4-4.39a9.66,9.66,0,0,0-5-2.86c-2.06-.41-4.45-.19-5.67,2.43C453.29,181.3,449.07,187.36,443.81,185.82Z" fill="#f7a48b"/>
<path d="M500.27,197.09a17.45,17.45,0,0,1-3.35,3.74l-8.11-5.58s-2.79-12.18-18-13.44a4.68,4.68,0,0,0,4.56,4.31s-5.49,1.75-11.36-4.33a9.5,9.5,0,0,0-5.08-2.9c-2-.39-4.37-.14-5.63,2.4,0,0-3.83,5.67-9.34,4.8,0,0-.38,4.41-.3,5.86l-.06,0c-.69-.42-6.45-4.28-5.7-11.4H438v0c.64-.19,5.33-1.89,8.56-9.92,0,0,7.69-17.53,29.46-11.68,0,0-2.39-4-4.26-4.92,0,0,8.1.13,11.55,7,0,0,10.75,1.06,15.53,8,0,0-8.1-2.13-6,2.39C492.83,171.34,501.59,178.67,500.27,197.09Z" opacity="0.2"/>
<ellipse cx="490.83" cy="202.35" rx="7.86" ry="6.09" transform="translate(145.06 605.22) rotate(-71.77)" fill="#f9b499"/>
<path d="M511.48,369.49s-18.46,17-43.26,12.11c0,0-38.08-2.59-47.31-22.78l-1.6-1.53,12.29,3.55c19.6,20.76,61.71,10.38,61.71,10.38,10.67-2.88,6.64-8.94,6.64-8.94-4.63-7.21,4.61-20.2,4.61-20.2,7.5-15.57,6.06-40.08,6.06-40.08l7.2,13.55s-3.17,27.4-6.92,39.52C510.9,355.07,508.59,362.85,511.48,369.49Z" opacity="0.2"/>
<path d="M516.88,237.73s2.27,12.66,9.83,16.63c0,0,2.64.75-.57,8.12,0,0-3.59,5.86,5.29,11.34,0,0,7.56,3.4,4,8.88l-4.93,4.93a.25.25,0,0,0,.22.42l8.87-1.57s-3.29,7.2-1.75,12.48a.49.49,0,0,0,1,0c.92-3.9,3.68-14.15,8.2-18.86l-25.38-38.64A20.2,20.2,0,0,0,516.88,237.73Z" opacity="0.2"/>
<polygon points="396.82 295.65 418.21 363.03 465.67 358.36 444.03 294.42 396.82 295.65" fill="#0071f2" data-primary="true"/>
<polygon points="396.82 295.65 418.21 363.03 465.67 358.36 444.03 294.42 396.82 295.65" fill="#fff" opacity="0.4"/>
<polygon points="447.23 291.71 468.62 356.14 465.67 358.36 444.03 294.42 396.82 295.65 401.98 292.94 447.23 291.71" fill="#0071f2" data-primary="true"/>
<polygon points="447.23 291.71 468.62 356.14 465.67 358.36 444.03 294.42 396.82 295.65 401.98 292.94 447.23 291.71" fill="#fff" opacity="0.5"/>
<ellipse cx="427.14" cy="324.42" rx="8.45" ry="8.31" fill="#fff" opacity="0.4"/>
<path d="M413,330.37a3.37,3.37,0,0,1,1.71,1.16,1.46,1.46,0,0,1-1.22,2.36,14.87,14.87,0,0,1-4.18-1.13,3,3,0,0,0-.78-.23c-1.32-.18-5.68-1.24-5.47-7a2.79,2.79,0,0,0-.71-2c-1.29-1.44-3.75-4.5-4.31-7.54a4.85,4.85,0,0,1,5.19-5.52l9.29.59a1.8,1.8,0,0,1-.06,3.6l-3.27.09a1,1,0,0,0-.78.69,1,1,0,0,0,.67,1.1l3.69,0a1.77,1.77,0,0,1,1.74,1.77h0a1.77,1.77,0,0,1-1.56,1.75l-1.61.19a1.6,1.6,0,0,0-1.39,1.9h0a1.61,1.61,0,0,0,1.58,1.32h2a2.07,2.07,0,0,1,2.07,2h0a2.07,2.07,0,0,1-1.95,2.14l-2.22.13a.74.74,0,0,0-.68.89S410.49,329.64,413,330.37Z" fill="#f9b499"/>
<rect x="577.11" y="117.7" width="196.68" height="289.95" fill="#fff" opacity="0.4"/>
<path d="M774.52,408.39H576.37V117H774.52Zm-196.68-1.47H773.05V118.44H577.84Z" fill="#2f2e41" opacity="0.4" data-secondary="true"/>
<path d="M414.28,313.08s-.5,1.59-1.82,1.58l-3.27.09a.88.88,0,0,0-.7,1.24,1.82,1.82,0,0,1-1-2.55s.24-.59,2.08-.48Z" fill="#f7a48b"/>
<rect x="202.3" y="233.2" width="116.57" height="1.47" fill="#2f2e41" data-secondary="true"/>
<rect x="188.09" y="228.96" width="7.81" height="7.81" fill="#0071f2" data-primary="true"/>
<rect x="202.3" y="250.26" width="116.57" height="1.47" fill="#2f2e41" data-secondary="true"/>
<rect x="188.09" y="246" width="7.81" height="7.81" fill="#0071f2" data-primary="true"/>
<rect x="202.3" y="267.3" width="116.57" height="1.47" fill="#2f2e41" data-secondary="true"/>
<rect x="188.09" y="263.04" width="7.81" height="7.81" fill="#0071f2" data-primary="true"/>
<rect x="202.3" y="284.34" width="116.57" height="1.47" fill="#2f2e41" data-secondary="true"/>
<rect x="188.09" y="280.1" width="7.81" height="7.81" fill="#0071f2" data-primary="true"/>
<rect x="172.33" y="154.37" width="1.47" height="160.75" fill="#2f2e41" data-secondary="true"/>
<path d="M211.37,216.4A25.44,25.44,0,1,1,236.8,191h0A25.45,25.45,0,0,1,211.37,216.4Zm0-49.41a24,24,0,1,0,24,24h0a24,24,0,0,0-24-24Z" fill="#2f2e41" data-secondary="true"/>
<path d="M211.37,197.64a9.5,9.5,0,1,1,9.49-9.5A9.5,9.5,0,0,1,211.37,197.64Zm0-17.53a8,8,0,1,0,8,8A8,8,0,0,0,211.37,180.11Z" fill="#2f2e41" data-secondary="true"/>
<path d="M211.37,216.4a25.15,25.15,0,0,1-15.31-5.16l-.37-.26.08-.44a15.8,15.8,0,0,1,31.17,0l.07.44-.36.26A25.19,25.19,0,0,1,211.37,216.4Zm-14.05-6.05a23.85,23.85,0,0,0,28.11,0,14.33,14.33,0,0,0-28.11,0Z" fill="#2f2e41" data-secondary="true"/>
<path d="M136.16,201.76a12.62,12.62,0,1,1,12.61-12.64v0A12.63,12.63,0,0,1,136.16,201.76Zm0-23.76a11.16,11.16,0,1,0,11.14,11.17v0A11.17,11.17,0,0,0,136.16,178Z" fill="#2f2e41" data-secondary="true"/>
<path d="M136.16,192.75a4.95,4.95,0,1,1,5-4.95h0A5,5,0,0,1,136.16,192.75Zm0-8.42a3.48,3.48,0,1,0,3.48,3.47h0A3.47,3.47,0,0,0,136.16,184.33Z" fill="#2f2e41" data-secondary="true"/>
<path d="M136.16,201.76a12.47,12.47,0,0,1-7.59-2.54l-.36-.28v-.44a8,8,0,0,1,15.75,0v.44l-.36.28A12.56,12.56,0,0,1,136.16,201.76Zm-6.34-3.45a11.27,11.27,0,0,0,12.67,0,6.52,6.52,0,0,0-12.67,0Z" fill="#2f2e41" data-secondary="true"/>
<path d="M136.16,251.55a12.63,12.63,0,1,1,12.61-12.64v0A12.64,12.64,0,0,1,136.16,251.55Zm0-23.78a11.16,11.16,0,1,0,11.14,11.17h0a11.16,11.16,0,0,0-11.14-11.17Z" fill="#2f2e41" data-secondary="true"/>
<path d="M136.16,242.51a4.95,4.95,0,1,1,5-4.95h0A5,5,0,0,1,136.16,242.51Zm0-8.43a3.48,3.48,0,1,0,3.48,3.48h0A3.48,3.48,0,0,0,136.16,234.08Z" fill="#2f2e41" data-secondary="true"/>
<path d="M136.16,251.55a12.56,12.56,0,0,1-7.59-2.56l-.36-.27v-.43a8,8,0,0,1,15.75,0v.43l-.36.27A12.58,12.58,0,0,1,136.16,251.55Zm-6.34-3.47a11.23,11.23,0,0,0,12.67,0,6.52,6.52,0,0,0-12.67,0Z" fill="#2f2e41" data-secondary="true"/>
<path d="M136.16,301.29a12.63,12.63,0,1,1,12.61-12.64v0A12.64,12.64,0,0,1,136.16,301.29Zm0-23.78a11.16,11.16,0,1,0,11.14,11.17h0A11.18,11.18,0,0,0,136.16,277.51Z" fill="#2f2e41" data-secondary="true"/>
<path d="M136.16,292.26a4.95,4.95,0,1,1,5-4.94h0A5,5,0,0,1,136.16,292.26Zm0-8.42a3.48,3.48,0,1,0,3.48,3.48h0A3.48,3.48,0,0,0,136.16,283.84Z" fill="#2f2e41" data-secondary="true"/>
<path d="M136.16,301.29a12.46,12.46,0,0,1-7.59-2.55l-.36-.28V298A8,8,0,0,1,144,298v.43l-.36.28A12.5,12.5,0,0,1,136.16,301.29Zm-6.34-3.46a11.27,11.27,0,0,0,12.67,0,6.52,6.52,0,0,0-12.67,0Z" fill="#2f2e41" data-secondary="true"/>
<rect x="249.37" y="176.15" width="62.54" height="1.47" fill="#2f2e41" data-secondary="true"/>
<rect x="249.37" y="190.53" width="62.54" height="1.47" fill="#2f2e41" data-secondary="true"/>
<rect x="249.37" y="204.92" width="62.54" height="1.47" fill="#2f2e41" data-secondary="true"/>
<circle cx="267.95" cy="458.81" r="63" fill="#fff"/>
<path d="M268,522.54a63.73,63.73,0,1,1,63.73-63.73A63.73,63.73,0,0,1,268,522.54Zm0-126a62.26,62.26,0,1,0,62.27,62.26v0A62.32,62.32,0,0,0,268,396.57Z" fill="#0071f2" data-primary="true"/>
<rect x="202.71" y="541.39" width="132.73" height="1.47" fill="#2f2e41" data-secondary="true"/>
<rect x="202.71" y="554.89" width="132.73" height="1.47" fill="#2f2e41" data-secondary="true"/>
<rect x="218.87" y="577.61" width="116.57" height="1.47" fill="#2f2e41" data-secondary="true"/>
<rect x="204.68" y="573.36" width="7.81" height="7.81" fill="#0071f2" data-primary="true"/>
<rect x="218.87" y="594.65" width="116.57" height="1.47" fill="#2f2e41" data-secondary="true"/>
<rect x="204.68" y="590.41" width="7.81" height="7.81" fill="#0071f2" data-primary="true"/>
<rect x="218.87" y="611.69" width="116.57" height="1.47" fill="#2f2e41" data-secondary="true"/>
<rect x="204.68" y="607.45" width="7.81" height="7.81" fill="#0071f2" data-primary="true"/>
<rect x="218.87" y="628.73" width="116.57" height="1.47" fill="#2f2e41" data-secondary="true"/>
<rect x="204.68" y="624.49" width="7.81" height="7.81" fill="#0071f2" data-primary="true"/>
<path d="M254,417a30.21,30.21,0,0,1,26.41-13.54c18.23.59,22.65,20.55,22,26.42a27.92,27.92,0,0,1-2.66,9.72l-7.94-6.77A54.52,54.52,0,0,1,304.28,452c4.4,11.74,2.29,27-3.3,30.53s-9.41,2.06-9.41,2.06l.59-7.95s-5.29,9.41-14.11,11.17-34.11,2.94-37.94-1.46a21.91,21.91,0,0,1-4.7-9.41l-.58,7.65s-7.94-5.88-8.24-12.66,3.82-16.14,5.87-21.16,3.53-7.65,4.11-15.3-.29-11.74,5-16.76S254,417,254,417Z" fill="#2f2e41" data-secondary="true"/>
<path d="M241.74,497.21c-4.87,2.1-12.75,4-18.11,6.35a63,63,0,0,0,88.44.21,33.4,33.4,0,0,0-6.44-2.38c-9.42-2.61-22.81-10.27-24.38-12.89s-3.11-11.74-3.11-11.74l-21.77-2.93s1.09,11.39,1.09,13.49S249.08,494.07,241.74,497.21Z" fill="#f9b499"/>
<path d="M291.7,495.59l-22.81,21.62-22.1-22.34c-1.66.83-3.38,1.62-5,2.34-4.87,2.1-12.75,4-18.11,6.35a63,63,0,0,0,88.44.21,33.4,33.4,0,0,0-6.44-2.38A74.1,74.1,0,0,1,291.7,495.59Z" fill="#0071f2" data-primary="true"/>
<rect x="605.95" y="292.06" width="132.73" height="1.47" fill="#2f2e41" data-secondary="true"/>
<rect x="605.95" y="305.56" width="132.73" height="1.47" fill="#2f2e41" data-secondary="true"/>
<rect x="622.12" y="328.28" width="116.57" height="1.47" fill="#2f2e41" data-secondary="true"/>
<rect x="607.92" y="324.02" width="7.81" height="7.81" fill="#0071f2" data-primary="true"/>
<rect x="622.12" y="345.32" width="116.57" height="1.47" fill="#2f2e41" data-secondary="true"/>
<rect x="607.92" y="341.08" width="7.81" height="7.81" fill="#0071f2" data-primary="true"/>
<rect x="622.12" y="362.36" width="116.57" height="1.47" fill="#2f2e41" data-secondary="true"/>
<rect x="607.92" y="358.12" width="7.81" height="7.81" fill="#0071f2" data-primary="true"/>
<rect x="622.12" y="379.4" width="116.57" height="1.47" fill="#2f2e41" data-secondary="true"/>
<rect x="607.92" y="375.16" width="7.81" height="7.81" fill="#0071f2" data-primary="true"/>
<circle cx="671.21" cy="209.48" r="63" fill="#fff"/>
<path d="M638.42,237.13,622.71,249.7A63,63,0,0,0,711.37,258a62.17,62.17,0,0,0,7.51-7.36l-23.81-15.57Z" fill="#0071f2" data-primary="true"/>
<path d="M658.13,219.34s-13.84,1.8-17.7,7.43-6.67,11-3.85,14.37A101.53,101.53,0,0,0,652,254.73c4.61,3.08,11.81,13.61,11.81,13.61a124.16,124.16,0,0,0,1-13.34c0-5.65-4.88-11.75-5.87-16.94s7.44-13.33,13.32-10.78,10.53,10.28,10.28,13.86,1,8,2.3,14.11,2.31,11.43,2.31,11.43,8.71-8.81,11.55-18.36,1.46-19.23-9-25.64S658.13,219.34,658.13,219.34Z" fill="#0071f2" data-primary="true"/>
<path d="M658.13,219.34s-13.84,1.8-17.7,7.43-6.67,11-3.85,14.37A101.53,101.53,0,0,0,652,254.73c4.61,3.08,11.81,13.61,11.81,13.61a124.16,124.16,0,0,0,1-13.34c0-5.65-4.88-11.75-5.87-16.94s7.44-13.33,13.32-10.78,10.53,10.28,10.28,13.86,1,8,2.3,14.11,2.31,11.43,2.31,11.43,8.71-8.81,11.55-18.36,1.46-19.23-9-25.64S658.13,219.34,658.13,219.34Z" fill="#fff" opacity="0.2"/>
<path d="M694.22,226.18a24.79,24.79,0,0,0-4.53-3.5c-10.53-6.42-31.56-3.34-31.56-3.34s-13.84,1.8-17.7,7.43c-.44.66-.88,1.32-1.29,2a13.87,13.87,0,0,0,2.31,9.83c5.76,9.16,17.62,13.55,23.33,16.15-.18-5.55-4.88-11.57-5.87-16.6s7.44-13.33,13.32-10.78,10.53,10.28,10.28,13.86,1,8,2.3,14.1l.22,1.12c.44-.43.88-.87,1.32-1.37a33.39,33.39,0,0,0,8.72-22.89A21.66,21.66,0,0,0,694.22,226.18Z" fill="#fff" opacity="0.2"/>
<path d="M655.82,209.33s1.55,18.47,2.06,23.61,3.33,18.21,12,20.76,13.85-7.42,12.58-14.86-3.58-14.37-3.58-16.94a12.4,12.4,0,0,0-.27-3.33Z" fill="#f9b499"/>
<path d="M678.65,218.52l-22.83-9.23s1.18,14.05,1.81,21.05l21.3-8.88A12.12,12.12,0,0,0,678.65,218.52Z" fill="#f7a48b"/>
<path d="M684.06,174.75s4.1,22.55,4.1,26.66-3.76,16.06-5.46,18.79-10.28,4.4-13.67,3.06-13-10.27-15-14a28.37,28.37,0,0,1-2.73-7.18s-4.79,2.06-8.54-3.42-1.71-10.58,2-10.92l3.42,1s-6.15-10.59-4.11-15.37,26.66-6.49,31.78-6.49S684.06,174.75,684.06,174.75Z" fill="#f9b499"/>
<path d="M686.72,208.92s-.66-7.79-2.22-8.91-13.21-.22-13.21-.22-11.74-3.33-12-.66c-.17,2,.36,12.39.85,17.26,3.29,3.16,7,6.14,8.81,6.87,3.41,1.37,12-.33,13.67-3.06a58.31,58.31,0,0,0,4-11.23Zm-2.67,1.34c-1.34,4.4-4.23,7.12-5.56,6.46s-2.46-4.91-3.57-5.35-2,1.78-3.33,3.79-4.9,2.67-6.46,1.34-3.35-13.59-3.35-15.15,16.27.9,16.27.9a30.18,30.18,0,0,1,5.12-.22c1.1.22,2.21,3.78.88,8.23Z" fill="#2f2e41" data-secondary="true"/>
<path d="M642.72,160.06s-8.81,8.81-5.46,16.41,12,21.5,12,21.5h1.7l-.34-5.87s5.46-2,4.41-6.82a21.27,21.27,0,0,0-3.41-7.87s5.87,4.4,12.64,3.42,9.91-9.22,12.3-6.49,6.15,4.41,13.31.68,11.74-16.48,3.91-21.61-15.18-.58-19.28.43-7.17-5.87-16.39-3.07A38.43,38.43,0,0,0,642.72,160.06Z" fill="#2f2e41" data-secondary="true"/>
<path d="M671.21,273.21a63.73,63.73,0,1,1,63.71-63.74h0A63.8,63.8,0,0,1,671.21,273.21Zm0-126a62.27,62.27,0,1,0,62.24,62.28v0A62.32,62.32,0,0,0,671.21,147.23Z" fill="#0071f2" data-primary="true"/>
<path d="M279.45,483.13l-1.34-6.47-21.77-2.94S262.91,486.22,279.45,483.13Z" fill="#f7a48b"/>
<path d="M250.8,448.49s1.76-13.21,5.87-20.29,12.94-5,16.47-2.65,9.11,15,12.31,23.22,4.7,12.93,4.7,12.93-5.08,10.72-12,15c-7.34,4.58-15.44,4.4-21.77-2.94a33.39,33.39,0,0,1-5.28-8.51s-7.34-2.36-9.11-8.53-.3-9.42,2.64-10.27S250.8,448.49,250.8,448.49Z" fill="#f9b499"/>
<rect x="97.34" y="138.37" width="286.21" height="15.58" fill="#0071f2" data-primary="true"/>
<circle cx="352.59" cy="200.4" r="29.15" fill="#0071f2" data-primary="true"/>
<polygon points="368.69 224.7 406.15 268.45 411.17 264.56 374.19 219.97 371.32 219.64 368.04 222.65 368.69 224.7" fill="#0071f2" data-primary="true"/>
<circle cx="352.59" cy="200.4" r="24" fill="#fff"/>
<g id="ab006351-349f-490c-9c9a-0e0f6015416f" data-name="freepik--Plant--inject-17">
<path d="M585.05,553.59a42.07,42.07,0,0,0-18-6.19c-2.89-.3-6.16-.21-8.51,1.56a1.78,1.78,0,0,0-.88,1.56,1.94,1.94,0,0,0,.84,1.05,25.7,25.7,0,0,0,26.51,2" fill="#0071f2" data-primary="true"/>
<path d="M584.59,553A87.31,87.31,0,0,1,573,542.82a29.4,29.4,0,0,1-7.28-13.45,5.45,5.45,0,0,1,.58-4.5c9.26,7.21,16.52,16.57,18.31,28.16" fill="#0071f2" data-primary="true"/>
<path d="M585,553.47a41.76,41.76,0,0,1,.22-15.24,20.64,20.64,0,0,1,8.11-12.57c1.6,3.74.91,8.05-.21,12A58.13,58.13,0,0,1,585,554.55" fill="#0071f2" data-primary="true"/>
<path d="M594,569.72A26.46,26.46,0,0,0,579.6,577a27.31,27.31,0,0,0-8.25,14.14c5.4-.33,10-4.14,13.31-8.41s5.62-9,9.27-13" fill="#0071f2" data-primary="true"/>
<path d="M596,572.33a35.54,35.54,0,0,1,4.1-33.61c3.14,11.15,2,23.75-4.1,33.61" fill="#0071f2" data-primary="true"/>
<path d="M608,586.59a25.7,25.7,0,0,0-24.51,14.14,1.89,1.89,0,0,0-.16,1.92,1.81,1.81,0,0,0,1.63.48c4.84-.31,9.12-3.22,12.67-6.55s6.63-7.14,10.54-10" fill="#0071f2" data-primary="true"/>
<path d="M607.58,585.81a45.73,45.73,0,0,1-.46-25.56c.91-3.3,2.43-6.76,5.47-8.3a.83.83,0,0,1,1.18.1.86.86,0,0,1,.17.36,15.28,15.28,0,0,1,1.29,7.34,45.41,45.41,0,0,1-1.14,7.42c-1,4.54-1.44,9.41-4,13.32a26.77,26.77,0,0,0-1.57,2.88c-.48,1-.48,1.36-.91,2.14" fill="#0071f2" data-primary="true"/>
<path d="M639.3,590.53a32.94,32.94,0,0,1,5.77-27.09c.42-.55,1-1.13,1.64-1.06,1,.09,1.31,1.45,1.27,2.51a49,49,0,0,1-8.65,25.64" fill="#0071f2" data-primary="true"/>
<path d="M642.16,592.52a39.49,39.49,0,0,0,32.35-6.58A26.18,26.18,0,0,0,657,583.76c-5.85,1.33-11.18,4-14.83,8.73" fill="#0071f2" data-primary="true"/>
<path d="M644.56,586.53a37.41,37.41,0,0,1,29.37-17c-1.34,4.72-5.23,8.39-9.6,10.61a53.38,53.38,0,0,1-14.1,4.13c-1.87.36-4.44.76-5.67,2.23" fill="#0071f2" data-primary="true"/>
<path d="M639.91,557.65a85.53,85.53,0,0,0,3.75-17.18,28.69,28.69,0,0,0-3.42-17c-5.68,11-6.26,23.83-.5,34.79" fill="#0071f2" data-primary="true"/>
<path d="M659,548c6.64-12.09,20.18-21.73,33.9-23.07-5.29,13.16-19.7,23.34-33.9,23.07" fill="#0071f2" data-primary="true"/>
<path d="M654.84,550.36c9.92,1.51,18.36,7.83,27.61,11.68a12.48,12.48,0,0,0,6.25,1.18,4.87,4.87,0,0,0,3-8.65,13.31,13.31,0,0,0-4.52-2.75c-10.1-4.2-20.91-4.33-31.54-1.76" fill="#0071f2" data-primary="true"/>
<path d="M649.12,557.31c2.24.63,3,1.8,4.79,3.31a51.7,51.7,0,0,0,20.93,10.76c.79.2,1.85.27,2.24-.45a1.77,1.77,0,0,0-.54-2,28.82,28.82,0,0,0-12.64-8.58c-4.83-1.8-9-4-14.78-3.5" fill="#0071f2" data-primary="true"/>
<path d="M642.65,515.34A39.63,39.63,0,0,0,673,525.68a2.2,2.2,0,0,0,1.45-.51c.76-.82-.16-2.1-1.06-2.88-8.92-6.95-19.73-9.85-30.71-7" fill="#0071f2" data-primary="true"/>
<path d="M650.32,512.53a42.38,42.38,0,0,1,37.9-6.26,30,30,0,0,1-18.06,7.93,56.94,56.94,0,0,1-19.84-1.67" fill="#0071f2" data-primary="true"/>
<path d="M647.28,493.25c-.88-8.92-.32-16-.94-24.91,0-.71-.2-1.57-.87-1.83-.93-.36-1.71.79-2,1.74a28.56,28.56,0,0,0,3.81,24.8" fill="#0071f2" data-primary="true"/>
<path d="M646.63,494.23a52.62,52.62,0,0,0,14.76-14.34c2.88-4,5.38-8.78,4.71-13.67a14.14,14.14,0,0,0-10.65,5.28A29.9,29.9,0,0,0,650,482.43c-1.18,3.92-2,7.95-3.4,11.8" fill="#0071f2" data-primary="true"/>
<path d="M661.13,490.15a119.14,119.14,0,0,0,36.35-21.42c-4.33-1.74-9.32-.69-13.66,1a43.07,43.07,0,0,0-22.88,20.37" fill="#0071f2" data-primary="true"/>
<path d="M650.71,499.11a74.12,74.12,0,0,0,20.18.1c6.55-1.1,12.73-3.69,18.84-6.26a2.31,2.31,0,0,0,1.29-1,1.45,1.45,0,0,0-.46-1.6,4.09,4.09,0,0,0-1.62-.76,34.87,34.87,0,0,0-20.34,1.22,94.17,94.17,0,0,0-17.88,8.28" fill="#0071f2" data-primary="true"/>
<path d="M612.4,515.64a35.74,35.74,0,0,1-.32-29.54c2.79,4.24,3.12,9.65,2.61,14.69s-2,10.24-2.15,15.31" fill="#0071f2" data-primary="true"/>
<path d="M594.12,506.43a41.16,41.16,0,0,0-30.61,13,28.84,28.84,0,0,0,16.77-3.1,87.45,87.45,0,0,0,14.42-9.62" fill="#0071f2" data-primary="true"/>
<path d="M581.84,502.31c-5.6-.45-11-1.14-16.35.5A19.59,19.59,0,0,0,553,513.38a29.52,29.52,0,0,0,15.33-2.88,87.72,87.72,0,0,0,13.48-8.18" fill="#0071f2" data-primary="true"/>
<path d="M600,502.49c-5-3.28-10.19-6.64-16-8s-12.64-.36-16.72,4.05c4.74,2.79,10.5,3.12,16,3.1s12.22,0,17.41,1.78" fill="#0071f2" data-primary="true"/>
<path d="M600.06,502.77c-8.65-8.45-11.85-23.6-8.39-35.15a53.63,53.63,0,0,1,8.39,35.15" fill="#0071f2" data-primary="true"/>
<path d="M623.7,478.85c1.62-3.78,2.76-7.73,4.21-11.53a33.35,33.35,0,0,1,6-10.66,15.89,15.89,0,0,1,10.66-5.52,42.86,42.86,0,0,1-20.67,27.8" fill="#0071f2" data-primary="true"/>
<path d="M619.48,483.84c-2.68-3.71-5.77-8.65-9.42-11.46S601.69,468,597.25,469a29.88,29.88,0,0,0,22.23,14.84" fill="#0071f2" data-primary="true"/>
<path d="M620.27,479.15A64.5,64.5,0,0,1,616,465.43a21.49,21.49,0,0,1,2.15-14c4.73,8.92,6.24,18.5,2.34,27.79" fill="#0071f2" data-primary="true"/>
<path d="M623.8,451.46c2.67-8.84,10.77-15.36,19.51-18.34a7.39,7.39,0,0,1,3.42-.52,3,3,0,0,1,2.52,2.11c.32,1.44-.92,2.88-2.09,3.84a66.25,66.25,0,0,1-23.36,13" fill="#0071f2" data-primary="true"/>
<path d="M623.8,444.22c.35-5.69.71-11.53,2.56-16.88s5.43-10.47,10.62-12.83c.9,5.76-1.64,11.53-4.71,16.43s-6.76,9.63-8.65,15.17" fill="#0071f2" data-primary="true"/>
<path d="M623.7,448.16c-2.22-6.45-2.43-14.64-6.3-20.26-2.69-3.92-7-6.59-9.34-10.75a16.39,16.39,0,0,0,.55,12.21,35,35,0,0,0,7.21,10.22c2.88,3.05,5.3,5.35,8,8.58" fill="#0071f2" data-primary="true"/>
<path d="M623.8,637.93c-.17,0-.33-43-.33-96s.12-96,.29-96,.32,43,.33,96S623.92,637.93,623.8,637.93Z" fill="#2f2e41" data-secondary="true"/>
<path d="M661.29,509.16a9.36,9.36,0,0,1-1.63.6l-4.44,1.44c-3.75,1.29-8.91,3.13-14.5,5.42S630,521,627,523.51a10,10,0,0,0-2.75,3.65c-.44,1-.51,1.63-.57,1.62s0-.16,0-.45a6.55,6.55,0,0,1,.32-1.25,9.67,9.67,0,0,1,2.7-3.77,23.63,23.63,0,0,1,5.95-3.7c2.38-1.11,5-2.28,7.83-3.43,5.61-2.3,10.8-4.08,14.59-5.27,1.9-.59,3.45-1,4.53-1.31A9,9,0,0,1,661.29,509.16Z" fill="#2f2e41" data-secondary="true"/>
<path d="M673.63,478.91a2.67,2.67,0,0,1-.46.49l-1.37,1.3-5.16,4.67L649.5,500.63c-6.69,6-12.48,11.65-16.48,15.94-2,2.13-3.58,3.9-4.66,5.14l-1.25,1.44a2.61,2.61,0,0,1-.47.47,3,3,0,0,1,.38-.55,16.88,16.88,0,0,1,1.15-1.44c1-1.29,2.55-3.1,4.53-5.29a218.53,218.53,0,0,1,16.39-16.11c6.71-5.94,12.82-11.27,17.3-15.12l5.29-4.53,1.45-1.21A2.19,2.19,0,0,1,673.63,478.91Z" fill="#2f2e41" data-secondary="true"/>
<path d="M642.27,506.69c-.17-.09,1.23-3.32,2.63-7.4s2.06-7.52,2.25-7.49a26.12,26.12,0,0,1-1.66,7.7q-.91,2.64-2.09,5.17A7.43,7.43,0,0,1,642.27,506.69Z" fill="#2f2e41" data-secondary="true"/>
<path d="M623.8,532.71a10.5,10.5,0,0,1-1-1.19l-2.64-3.39c-2.22-2.89-5.29-6.84-8.72-11.16s-6.6-8.22-8.9-11l-2.69-3.33a7.88,7.88,0,0,1-.94-1.29,8.62,8.62,0,0,1,1.13,1.13l2.88,3.21c2.38,2.74,5.59,6.59,9,10.93s6.46,8.35,8.65,11.27c1.07,1.45,1.92,2.67,2.48,3.52A6.46,6.46,0,0,1,623.8,532.71Z" fill="#2f2e41" data-secondary="true"/>
<path d="M615.54,522.13a15.12,15.12,0,0,1-3.44-6.46,18.64,18.64,0,0,1-.8-6.51h.28c-.12.49-.2.74-.26.74s0-.28,0-.79h.27a30.38,30.38,0,0,0,1.1,6.35A49,49,0,0,0,615.54,522.13Z" fill="#2f2e41" data-secondary="true"/>
<path d="M604.9,508.75a10.62,10.62,0,0,0-2.4-1.44,15.94,15.94,0,0,0-6.69-.53,42.64,42.64,0,0,0-6.74,1.09,20,20,0,0,1-2.77.67,9,9,0,0,1,2.66-1.1,30.81,30.81,0,0,1,6.8-1.28,14.38,14.38,0,0,1,6.91.75A4.17,4.17,0,0,1,604.9,508.75Z" fill="#2f2e41" data-secondary="true"/>
<path d="M602.39,505.51c0,.1-1.44-.56-3.69-1.34a37.23,37.23,0,0,0-18.61-1.44c-2.38.41-3.82.86-3.85.76a3.54,3.54,0,0,1,1-.42,26.64,26.64,0,0,1,2.78-.78,32.82,32.82,0,0,1,9.53-.66,33.16,33.16,0,0,1,9.32,2.09,26.07,26.07,0,0,1,2.64,1.2A3.78,3.78,0,0,1,602.39,505.51Z" fill="#2f2e41" data-secondary="true"/>
<path d="M623.7,491.8a74.42,74.42,0,0,1-2.69-9.35,73.14,73.14,0,0,1-2.09-9.5,74.42,74.42,0,0,1,2.69,9.35A78.88,78.88,0,0,1,623.7,491.8Z" fill="#2f2e41" data-secondary="true"/>
<path d="M623.88,491.8a47.73,47.73,0,0,0-3-5.6,24.15,24.15,0,0,0-4.4-4.52,4.07,4.07,0,0,1,1.71.86,14.12,14.12,0,0,1,3.2,3.3A12.65,12.65,0,0,1,623.88,491.8Z" fill="#2f2e41" data-secondary="true"/>
<path d="M623.8,615s-.2-1-.67-2.88a41.43,41.43,0,0,0-2.89-7.46A101.93,101.93,0,0,0,605,583.22c-3.4-3.9-6.7-7.56-9.5-11.08a77.1,77.1,0,0,1-6.8-9.8,47.61,47.61,0,0,1-3.43-7.21c-.32-.89-.55-1.58-.68-2.07a3.78,3.78,0,0,1-.17-.74s.37,1,1.08,2.73a52,52,0,0,0,3.59,7.2,78.88,78.88,0,0,0,6.86,9.66c2.81,3.48,6.11,7.13,9.53,11a98.27,98.27,0,0,1,15.17,21.7,37,37,0,0,1,2.71,7.58,19.31,19.31,0,0,1,.37,2.15A3,3,0,0,1,623.8,615Z" fill="#2f2e41" data-secondary="true"/>
<path d="M657.68,576.66a13.85,13.85,0,0,1-1.77,1,38.38,38.38,0,0,0-4.61,3.06,52.85,52.85,0,0,0-6.06,5.52c-2.13,2.25-4.32,4.86-6.56,7.65-4.47,5.61-8.65,10.59-11.16,14.55-1.27,2-2.19,3.62-2.79,4.79-.3.61-.63,1.21-1,1.79a1.35,1.35,0,0,1,.15-.51c.16-.32.32-.81.61-1.44a46.54,46.54,0,0,1,2.64-4.92,163.68,163.68,0,0,1,11.07-14.63c2.25-2.8,4.47-5.41,6.63-7.66a47.57,47.57,0,0,1,6.22-5.47,31.52,31.52,0,0,1,4.75-2.89,13.14,13.14,0,0,1,1.45-.62A2.27,2.27,0,0,1,657.68,576.66Z" fill="#2f2e41" data-secondary="true"/>
<path d="M658.41,589.11a28.31,28.31,0,0,1-3.77.55,50.1,50.1,0,0,0-8.92,1.76,27.12,27.12,0,0,0-8,4.18c-1.84,1.44-2.71,2.61-2.8,2.54a3.12,3.12,0,0,1,.57-.87,13.72,13.72,0,0,1,2-2,24.07,24.07,0,0,1,8.07-4.44,39.85,39.85,0,0,1,9.07-1.6A20.21,20.21,0,0,1,658.41,589.11Z" fill="#2f2e41" data-secondary="true"/>
<path d="M636,596.84c-.19-.11,1.44-2.7,2.88-6.18s1.44-6.59,1.74-6.56a6.16,6.16,0,0,1-.07,2,21.49,21.49,0,0,1-1.09,4.76,22.52,22.52,0,0,1-2.18,4.33A6.16,6.16,0,0,1,636,596.84Z" fill="#2f2e41" data-secondary="true"/>
<path d="M668.68,543.28a2.66,2.66,0,0,1-.6.32l-1.76.81c-.78.33-1.72.74-2.78,1.31s-2.29,1.11-3.59,1.89l-2.05,1.15c-.71.42-1.44.91-2.16,1.44-1.44.92-3,2-4.64,3.2a79.84,79.84,0,0,0-17.9,18.51c-1.09,1.66-2.17,3.22-3,4.76-.44.76-.91,1.44-1.28,2.21s-.75,1.44-1.1,2.09c-.73,1.31-1.25,2.56-1.77,3.64a29.54,29.54,0,0,0-1.21,2.89l-.75,1.79a5,5,0,0,1-.29.62,2.54,2.54,0,0,1,.17-.67l.64-1.83c.27-.81.63-1.77,1.12-2.88s1-2.38,1.69-3.72c.35-.68.71-1.44,1.07-2.12s.83-1.44,1.27-2.25c.85-1.56,1.91-3.13,3-4.82a77.25,77.25,0,0,1,18-18.64c1.64-1.15,3.17-2.26,4.71-3.17.75-.46,1.45-.94,2.2-1.34l2.09-1.14c1.31-.76,2.56-1.3,3.64-1.81a29.14,29.14,0,0,1,2.89-1.23l1.81-.69A2,2,0,0,1,668.68,543.28Z" fill="#2f2e41" data-secondary="true"/>
<path d="M641.81,561.27a4.44,4.44,0,0,1,1.44-2.19,9.34,9.34,0,0,1,6-2.29,16.35,16.35,0,0,1,6.25,1.23,9.35,9.35,0,0,1,2.38,1.15,14.85,14.85,0,0,1-2.52-.74,19.42,19.42,0,0,0-6.1-1,9.75,9.75,0,0,0-5.68,2A23.37,23.37,0,0,0,641.81,561.27Z" fill="#2f2e41" data-secondary="true"/>
<path d="M637.8,565.43a22.67,22.67,0,0,0,1.69-5.51,22.34,22.34,0,0,0-.37-5.77,3.76,3.76,0,0,1,.69,1.6,11.07,11.07,0,0,1,.3,4.21,11.73,11.73,0,0,1-1.25,4C638.32,565,637.86,565.47,637.8,565.43Z" fill="#2f2e41" data-secondary="true"/>
<path d="M594.05,621.18c.92,16.43,5.88,33.16,13.49,50H640.7c7.21-16.72,11.87-33.4,12.69-50Z" fill="#2f2e41" data-secondary="true"/>
<path d="M648,647.76c0,.17-10.9.32-24.35.32s-24.35-.15-24.35-.32,10.9-.3,24.35-.3S648,647.59,648,647.76Z" fill="#fafafa"/>
<path d="M647.25,653.72c0,.17-10.23.31-22.84.31s-22.82-.14-22.82-.31,10.22-.32,22.82-.32S647.25,653.54,647.25,653.72Z" fill="#fafafa"/>
<path d="M608.07,632a90.3,90.3,0,0,1,0,15.25A97.05,97.05,0,0,1,608.07,632Z" fill="#fafafa"/>
<path d="M625.82,632a102.41,102.41,0,0,1,0,15.86A100,100,0,0,1,625.82,632Z" fill="#fafafa"/>
<path d="M642.55,631.83a103.27,103.27,0,0,1,0,16.12A105.79,105.79,0,0,1,642.55,631.83Z" fill="#fafafa"/>
<path d="M652.29,632c0,.17-12.79.32-28.56.32s-28.56-.15-28.56-.32,12.79-.3,28.56-.3S652.29,631.79,652.29,632Z" fill="#fafafa"/>
</g>
<rect x="97.34" y="669.97" width="685.32" height="1.47" fill="#2f2e41" data-secondary="true"/>
</svg>